<svg xmlns="http://www.w3.org/2000/svg" width="16" height="20" viewBox="0 0 16 20">
    <g fill="none" fill-rule="evenodd">
        <g fill="#FFF">
            <g>
                <g>
                    <path d="M0 9c0-2.21 1.79-4 4-4h8c2.21 0 4 1.79 4 4v14c0 1.684-1.953 2.615-3.26 1.554l-4.11-3.335c-.367-.298-.893-.298-1.26 0l-4.11 3.335C1.953 25.614 0 24.684 0 23V9zm11.707 2.707c.39-.39.39-1.024 0-1.414-.39-.39-1.024-.39-1.414 0L7 13.586l-1.293-1.293c-.39-.39-1.024-.39-1.414 0-.39.39-.39 1.024 0 1.414l2 2c.39.39 1.024.39 1.414 0l4-4z" transform="translate(-430 -330) translate(180 185) translate(250 140)"/>
                </g>
            </g>
        </g>
    </g>
</svg>
