<svg xmlns="http://www.w3.org/2000/svg" width="561" height="566" viewBox="0 0 561 566">
    <defs>
        <linearGradient id="zuu65yd7xa" x1=".788%" x2="97.942%" y1="48.163%" y2="48.899%">
            <stop offset="0%" stop-color="#FF794D"/>
            <stop offset="62.841%" stop-color="#FF794D" stop-opacity=".04"/>
            <stop offset="100%" stop-color="#FF794D" stop-opacity="0"/>
        </linearGradient>
    </defs>
    <g fill="none" fill-rule="evenodd">
        <g fill="url(#zuu65yd7xa)" transform="translate(-726 -214)">
            <path d="M727.617 526.893l279.879 259.561c-4.617-.077-9.234-.266-13.845-.566l-264.428-245.23c-.646-4.577-1.181-9.167-1.606-13.765zm-1.22-27.044l308.158 285.787c-4.157.322-8.32.553-12.486.694L726.644 512.352c-.172-4.165-.255-8.333-.246-12.503zm5.59 57.009l245.299 227.493c-5.285-.649-10.556-1.446-15.807-2.39l-225.92-209.52c-1.337-5.165-2.528-10.362-3.573-15.583zm-4.462-81.879l331.744 307.662c-3.806.63-7.624 1.182-11.45 1.657L726.733 486.522c.187-3.851.45-7.7.792-11.543zm3.006-23.124l351.571 326.049c-3.52.88-7.054 1.694-10.6 2.44L728.895 462.608c.477-3.592 1.022-7.177 1.636-10.753zm10.591 139.391l201.186 186.582c-6.456-1.626-12.87-3.48-19.226-5.566L748.12 610.002c-2.557-6.183-4.89-12.439-6.997-18.756zm-6.005-161.051l368.239 341.507c-3.28 1.096-6.574 2.132-9.884 3.106l-360.71-334.524c.724-3.374 1.509-6.737 2.355-10.09zm5.965-20.384l382.15 354.41c-3.065 1.286-6.15 2.517-9.25 3.692l-375.886-348.6c.938-3.18 1.934-6.348 2.986-9.502zm18.39 224.356L898.129 762.76c-9.924-4.324-19.66-9.242-29.153-14.755l-92.597-85.874c-6.212-9.052-11.848-18.39-16.907-27.963zm-11.19-243.596l393.594 365.023c-2.875 1.459-5.77 2.866-8.684 4.222L744.724 399.55c1.134-3.008 2.32-6.002 3.558-8.979zm8.33-18.184l402.77 373.533c-2.697 1.618-5.417 3.187-8.157 4.709L752.529 380.877c1.311-2.847 2.672-5.677 4.082-8.49zm9.385-17.21l409.84 380.09c-2.533 1.766-5.089 3.488-7.666 5.164l-406.747-377.22c1.478-2.697 3.002-5.375 4.573-8.034zm10.387-16.285l414.91 384.793c-2.376 1.91-4.776 3.775-7.199 5.598l-412.752-382.79c1.635-2.554 3.316-5.088 5.041-7.6zm11.342-15.392l418.065 387.716c-2.225 2.047-4.476 4.052-6.75 6.016L782.235 330.684c1.787-2.416 3.618-4.811 5.491-7.184zm12.275-14.53l419.358 388.916c-2.079 2.18-4.183 4.32-6.313 6.42L794.07 315.747c2.789-3.29 5.665-6.535 8.628-9.73L800 308.971zm13.181-13.69l418.835 388.429c-1.919 2.296-3.88 4.57-5.882 6.82l-419.31-388.872c2.093-2.166 4.212-4.292 6.357-6.377zm14.103-12.834l416.469 386.235c-1.772 2.43-3.586 4.839-5.444 7.226l-417.821-387.49c2.24-2.032 4.506-4.022 6.796-5.971zm15.048-11.959l412.214 382.288c-1.62 2.569-3.284 5.118-4.993 7.646L835.086 276.04c2.392-1.895 4.808-3.746 7.247-5.553zm16.028-11.05l405.998 376.525c-1.46 2.712-2.968 5.406-4.524 8.081L850.643 264.556c2.55-1.752 5.123-3.458 7.718-5.118zm17.055-10.093l397.725 368.852c-1.293 2.863-2.636 5.71-4.028 8.54L867.204 254.002c2.716-1.601 5.454-3.154 8.212-4.659zm18.155-9.078l387.257 359.143c-1.113 3.025-2.28 6.034-3.498 9.028L884.83 244.434c2.894-1.442 5.808-2.83 8.74-4.168zm19.341-7.977l374.415 347.232c-.917 3.202-1.892 6.392-2.924 9.567l-380.81-353.163c3.09-1.268 6.196-2.48 9.32-3.636zm20.654-6.76l358.948 332.89c-.699 3.397-1.46 6.785-2.285 10.16L923.607 228.573c3.304-1.076 6.624-2.09 9.959-3.043zm22.14-5.382l340.51 315.79c-.45 3.621-.968 7.235-1.556 10.84L945.014 222.514c3.551-.857 7.116-1.646 10.692-2.366zm23.871-3.769l318.601 295.473c-.152 3.879-.383 7.755-.693 11.628l-329.45-305.536c3.838-.6 7.686-1.121 11.542-1.565zm26-1.803l292.443 271.214c.216 4.204.34 8.412.372 12.621L992.963 215.154c4.2-.285 8.406-.478 12.615-.579zm14.736.025c4.676.127 9.35.369 14.02.725L1295.11 457.17c.706 4.629 1.298 9.273 1.778 13.927zm30.612 2.476c5.376.726 10.736 1.606 16.074 2.638l221.276 205.213c1.432 5.245 2.712 10.525 3.84 15.83zm35.648 7.144c6.645 1.778 13.24 3.8 19.773 6.068l168.425 156.198c2.753 6.343 5.265 12.768 7.538 19.26zm45.816 16.577c10.894 5.036 21.545 10.798 31.88 17.29l78.426 72.733c7.25 9.818 13.798 20.004 19.639 30.488z"/>
        </g>
    </g>
</svg>
