<svg xmlns="http://www.w3.org/2000/svg" xmlns:xlink="http://www.w3.org/1999/xlink" width="18" height="15" viewBox="0 0 18 15">
    <defs>
        <path id="h9ipgimi5a" d="M5.536 14.286c1.28 0 2.481-.203 3.605-.609 1.123-.405 2.083-.948 2.88-1.629.795-.68 1.482-1.464 2.058-2.35.577-.885 1.007-1.81 1.29-2.773.282-.963.423-1.929.423-2.896 0-.208-.003-.365-.01-.469.706-.513 1.309-1.134 1.807-1.864-.692.298-1.384.484-2.076.558.782-.468 1.31-1.13 1.585-1.986-.714.424-1.477.714-2.288.87C14.096.38 13.218 0 12.176 0c-.997 0-1.847.352-2.55 1.055-.703.703-1.055 1.553-1.055 2.55 0 .268.03.543.09.826-1.473-.075-2.856-.445-4.146-1.11C3.224 2.653 2.128 1.766 1.228.657.9 1.217.737 1.823.737 2.478c0 .617.145 1.19.435 1.718.29.529.68.957 1.172 1.284-.58-.022-1.124-.175-1.63-.458v.045c0 .87.274 1.635.82 2.293.547.659 1.238 1.074 2.07 1.245-.312.082-.628.123-.948.123-.208 0-.435-.019-.68-.056.23.722.654 1.315 1.272 1.78.617.465 1.317.705 2.098.72-1.31 1.027-2.801 1.54-4.475 1.54-.32 0-.61-.015-.871-.045 1.674 1.08 3.52 1.619 5.536 1.619z"/>
    </defs>
    <g fill="none" fill-rule="evenodd">
        <g fill="#1D263A" fill-rule="nonzero">
            <g>
                <g>
                    <g>
                        <g transform="translate(-1321 -3718) translate(0 3181) translate(72 140) translate(0 392) translate(1249.491 5.714)">
                            <use xlink:href="#h9ipgimi5a"/>
                            <use xlink:href="#h9ipgimi5a"/>
                        </g>
                    </g>
                </g>
            </g>
        </g>
    </g>
</svg>
